<?xml version="1.0" encoding="utf-8"?>
<!-- Generator: Adobe Illustrator 18.0.0, SVG Export Plug-In . SVG Version: 6.00 Build 0)  -->
<!DOCTYPE svg PUBLIC "-//W3C//DTD SVG 1.1//EN" "http://www.w3.org/Graphics/SVG/1.1/DTD/svg11.dtd">
<svg version="1.1" id="图层_1" xmlns="http://www.w3.org/2000/svg" xmlns:xlink="http://www.w3.org/1999/xlink" x="0px" y="0px"
	 viewBox="0 0 133.5 32.4" enable-background="new 0 0 133.5 32.4" xml:space="preserve">
<g>
	<g>
		<g>
			<path fill="#FFFFFF" d="M67.5,5.3v0.9h6.4v5.7h-2l0-0.8h-3.3l-0.8,8.6l3.5,0l0-0.4l2.6,0L73.6,25c0,0-0.2,1.9-2.3,1.8l-3.8,0
				l3.5,1.5l0,2.1c0,0,5.5,0.1,5.8-4.8l0.3-6.8l-5.8,0l0.5-6.2h2.1v0.8h3.2V5.3H67.5z"/>
			<path fill="#FFFFFF" d="M83.1,2.8l3.7,3.8c0,0,2.9-1.4,0.9-3.1c0,0-0.8-0.7-2-1C84.9,2.3,84,2.4,83.1,2.8z"/>
			<path fill="#FFFFFF" d="M77.8,7.8h5.7l-4.5,8.1l-1.2,0l1.3,3.8l6.8-2.3l-5.2,8.8h-2.4l1.2,4.2l12.3-2.8l1.1,2.8
				c4.4-1.5,2.2-4.8,2-5.2c-2-3.1-6-4.9-6-4.9l2.4,5.9h-8.9l9.9-12.9h-4l-1.5,2.5l-5.7,0L88,7.8h7.3V7H77.8V7.8z"/>
		</g>
		<polygon fill="#FFFFFF" points="9.5,8.7 20.5,7.5 20.5,15.4 8.3,15.4 8.3,16.1 20.5,16.1 20.5,30.4 24.7,30.4 24.8,16.1 
			36.1,16.1 36.1,15.3 24.7,15.3 24.7,7.1 34.3,6 33.3,2.4 		"/>
		<path fill="#FFFFFF" d="M55.6,21.7l0-7.9h8.2v-0.7h-8.2V6.7h8.9V5.8h-18c1.3-1.5,1.9-3.4,1.9-3.4h-4.6C43,7.2,38.6,14,38.6,14
			c5.2-3.7,7.5-7.5,7.5-7.5h5.5v6.6h-5.2V12h-3.8v9.7H38v0.7h13.7v8h3.9l0-8.1h10.3v-0.7H55.6z M51.6,21.7h-5.2v-7.9h5.2V21.7z"/>
		<g>
			<polygon fill="#FFFFFF" points="106.7,15 109.8,15 109.8,5.1 111.2,5.1 111.2,4.5 97.9,4.5 97.9,5.1 106.7,5.1 			"/>
			<path fill="#FFFFFF" d="M105.3,13.5V7.7h-4.4V6.8h-2.5v7.3h2.5V13h1.8v0.5H105.3z M100.9,12.4V8.2h1.8v4.2H100.9z"/>
			<path fill="#FFFFFF" d="M109.8,26.1v-9.7h2.2v-0.7H97.1v0.7h9.5v9.4c0,0.8-1,1-1,1l-3.5,0l3.1,1.6l0,1.9
				C110.2,30.4,109.8,26.1,109.8,26.1z"/>
			<path fill="#FFFFFF" d="M102.9,24.7h2.6v-6.4h-4.6v-0.7h-2.6V26h2.6v-1.8h2.1V24.7z M100.9,23.7v-4.7h2.1v4.7H100.9z"/>
			<path fill="#FFFFFF" d="M115.1,8.1h5.3c-0.1,0.7-1.4,5.9-1.4,5.9c4-3,5.5-8.1,5.5-8.1h-3.7l-0.3,1.6h-5.1
				c0.2-0.4,1.5-5.1,1.5-5.1h-4c-0.8,8.5-2.3,12-2.3,12C113.5,12.2,115.1,8.1,115.1,8.1z"/>
			<path fill="#FFFFFF" d="M118.6,13.8v-3.1h-3.7c-0.3,12-6.3,19.7-6.3,19.7c7.1-2.5,8.1-14.3,8.1-14.3c0,5.7,6.4,14.3,6.4,14.3
				l2-3.5C119.3,21.1,118.6,13.8,118.6,13.8z"/>
		</g>
	</g>
</g>
</svg>
